<svg width="20" height="20" viewBox="0 0 20 20" fill="none" xmlns="http://www.w3.org/2000/svg">
<path d="M10 0.375C10.3868 0.389208 10.709 0.525333 10.9666 0.783375C11.2242 1.04142 11.3603 1.36362 11.375 1.75V3.125H8.625V1.75C8.63921 1.36317 8.77533 1.04096 9.03337 0.783375C9.29142 0.525792 9.61362 0.389667 10 0.375ZM4.5 15.5H15.5V8.625C15.4569 7.06392 14.9198 5.76775 13.8885 4.7365C12.8573 3.70525 11.5611 3.16808 10 3.125C8.43892 3.16808 7.14275 3.70525 6.1115 4.7365C5.08025 5.76775 4.54308 7.06392 4.5 8.625V15.5ZM10 1.75C11.9479 1.79308 13.57 2.46271 14.8661 3.75887C16.1623 5.05504 16.8319 6.67708 16.875 8.625V16.875H3.125V8.625C3.16808 6.67708 3.83771 5.05504 5.13387 3.75887C6.43004 2.46271 8.05208 1.79308 10 1.75ZM1.0625 15.5H18.9375C19.3958 15.5 19.625 15.7292 19.625 16.1875C19.625 16.6458 19.3958 16.875 18.9375 16.875H1.0625C0.604167 16.875 0.375 16.6458 0.375 16.1875C0.375 15.7292 0.604167 15.5 1.0625 15.5ZM8.625 18.25H11.375C11.3608 18.6368 11.2247 18.959 10.9666 19.2166C10.7086 19.4742 10.3864 19.6032 10 19.6037C9.61362 19.6041 9.29142 19.4751 9.03337 19.2166C8.77533 18.9581 8.63921 18.6359 8.625 18.25Z" fill="#B0B0B0"/>
</svg>
