<svg width="19" height="19" viewBox="0 0 19 19" fill="none" xmlns="http://www.w3.org/2000/svg">
<path d="M16.1016 15.135L18.7869 17.8203C18.9157 17.9638 18.9801 18.1249 18.9801 18.3037C18.9801 18.4824 18.9121 18.6401 18.7759 18.7767C18.6398 18.9132 18.4821 18.9813 18.3029 18.9808C18.1237 18.9804 17.9626 18.916 17.8196 18.7877L15.1343 16.1023C13.2294 17.6634 11.1167 18.3758 8.79619 18.2397C6.47564 18.1036 4.46333 17.1546 2.75925 15.3928C1.12621 13.5452 0.331228 11.4612 0.374311 9.14065C0.417395 6.82011 1.29121 4.77182 2.99575 2.99578C4.77179 1.29124 6.82008 0.417425 9.14062 0.374342C11.4612 0.331258 13.5452 1.12624 15.3927 2.75928C17.1546 4.46382 18.1036 6.47613 18.2397 8.79622C18.3758 11.1163 17.6633 13.229 16.1023 15.1343L16.1016 15.135ZM9.3125 16.875C11.4612 16.8177 13.2443 16.0801 14.6619 14.662C16.0796 13.2439 16.8172 11.4607 16.875 9.31253C16.8177 7.16386 16.08 5.38072 14.6619 3.96309C13.2439 2.54547 11.4607 1.80778 9.3125 1.75003C7.16383 1.80732 5.38069 2.54501 3.96306 3.96309C2.54544 5.38118 1.80775 7.16432 1.75 9.31253C1.80729 11.4612 2.54498 13.2443 3.96306 14.662C5.38115 16.0796 7.16429 16.8173 9.3125 16.875Z" fill="white"/>
</svg>
