<svg width="19" height="19" viewBox="0 0 19 19" fill="none" xmlns="http://www.w3.org/2000/svg">
<path d="M16.1015 15.135L18.7868 17.8203C18.9156 17.9638 18.98 18.1249 18.98 18.3037C18.98 18.4824 18.912 18.6401 18.7758 18.7767C18.6397 18.9132 18.4821 18.9813 18.3028 18.9808C18.1236 18.9804 17.9625 18.916 17.8195 18.7877L15.1342 16.1023C13.2293 17.6634 11.1166 18.3758 8.79609 18.2397C6.47555 18.1036 4.46324 17.1546 2.75916 15.3928C1.12612 13.5452 0.331136 11.4612 0.37422 9.14065C0.417303 6.82011 1.29112 4.77182 2.99566 2.99578C4.7717 1.29124 6.81999 0.417425 9.14053 0.374342C11.4611 0.331258 13.5451 1.12624 15.3927 2.75928C17.1545 4.46382 18.1035 6.47613 18.2396 8.79622C18.3757 11.1163 17.6632 13.229 16.1022 15.1343L16.1015 15.135ZM9.31241 16.875C11.4611 16.8177 13.2442 16.0801 14.6618 14.662C16.0795 13.2439 16.8172 11.4607 16.8749 9.31253C16.8176 7.16386 16.0799 5.38072 14.6618 3.96309C13.2438 2.54547 11.4606 1.80778 9.31241 1.75003C7.16374 1.80732 5.3806 2.54501 3.96297 3.96309C2.54534 5.38118 1.80766 7.16432 1.74991 9.31253C1.8072 11.4612 2.54489 13.2443 3.96297 14.662C5.38105 16.0796 7.1642 16.8173 9.31241 16.875Z" fill="#29AFCB"/>
</svg>
